<svg width="219" height="219" viewBox="0 0 219 219" fill="none" xmlns="http://www.w3.org/2000/svg">
<path d="M109.5 0C169.975 0 219 49.0248 219 109.5C219 169.975 169.975 219 109.5 219C49.0248 219 0 169.975 0 109.5C0 49.0248 49.0248 0 109.5 0ZM110 9C54.2192 9 9 54.2192 9 110C9 165.781 54.2192 211 110 211C165.781 211 211 165.781 211 110C211 54.2192 165.781 9 110 9Z" fill="white"/>
<path d="M55 166.5H36.5L31.5 153L45.5 142.5L40.5 130.5L50.5 108.5V94.5L55 90.5L50.5 89L53.5 85V82.5L50 85L50.5 54.5L55 58L56 54.5L58.5 58H67.5L71 61L69 61.5V62.5H74.5L86.5 67.5L83.5 71.5H68.5V87L74.5 103L79 106.5L80.5 84.5H103.5L108 89L112.5 84.5H135L137 106.5L142.5 100.5L148.5 84.5L145.5 75H136.5L133.5 66.5L145.5 63.5L147 59.5H153.5L155 52.5L166 55.5L172.5 61.5H167.5L172.5 70.5H168.5L172.5 75V84.5L167.5 80L171 87L162.5 96L176 130L171 143.5L185 152.5V155L179.5 166.5H165V161.5H170L172.5 156L158 145.5V143.5L161.5 134.5L145.5 114L150 107L138.5 114L139.5 126H114.5L109 132L101.5 126H78V114L66 107L71.5 113L55 134.5V136L58.5 145.5L44 156L46.5 161.5L55 163.5V166.5Z" fill="white"/>
<path d="M77 136.5L68.5 125L60 134.5V136.5L64.5 141.5V144L58 157V159.5L62 166.5L81 167L82 163.5L71 161.5L68.5 159V156L77 139.5V136.5Z" fill="white"/>
<path d="M155.5 134.5L148.5 125L139.5 136.5V139L148.5 158L147.5 160.5H138.5V166.5H154.5L158.5 158.5V156L152.5 143.5V141.5L155.5 137.5V134.5Z" fill="white"/>
<path d="M31.5 67.5L28 83.5L32 84L31.5 113H36.5L39.5 125L46 107.5L45.5 82.5L31.5 67.5Z" fill="white"/>
<path d="M192 90.5V103.5L183 90H181L174 97.5V100.5L181 115.5V119L178 125H177L167.5 97.5V96L185 77.5H186L192 90.5Z" fill="white"/>
</svg>
